<?xml version="1.0" encoding="utf-8"?>
<!-- Generator: Adobe Illustrator 21.1.0, SVG Export Plug-In . SVG Version: 6.00 Build 0)  -->
<svg version="1.1" id="Layer_1" xmlns="http://www.w3.org/2000/svg" xmlns:xlink="http://www.w3.org/1999/xlink" x="0px" y="0px"
	 viewBox="0 0 421.1 140.5" style="enable-background:new 0 0 421.1 140.5;" xml:space="preserve">
<style type="text/css">
	.st0{fill:#919191;}
	.st1{fill:#FFFFFF;}
	.st2{font-family:'HelveticaNeue';}
	.st3{font-size:15px;}
	.st4{fill:#62449B;stroke:#FFFFFF;stroke-width:3;stroke-miterlimit:10;}
	.st5{fill:#F26722;stroke:#FFFFFF;stroke-width:3;stroke-miterlimit:10;}
	.st6{fill:#99CA3C;stroke:#FFFFFF;stroke-width:3;stroke-miterlimit:10;}
	.st7{opacity:0.21;fill:none;stroke:#000000;stroke-width:3;stroke-linecap:round;stroke-linejoin:round;stroke-miterlimit:10;}
	.st8{fill:#62449B;}
	.st9{fill:#F26722;}
	.st10{fill:#99CA3C;}
</style>
<path class="st0" d="M188,134.7H16.3c-4.4,0-8-3.6-8-8V17.2c0-4.4,3.6-8,8-8H188c4.4,0,8,3.6,8,8v109.5
	C196,131.1,192.4,134.7,188,134.7z"/>
<text transform="matrix(1 0 0 1 69.0882 71.1714)" class="st1 st2 st3">RKRadar</text>
<circle class="st4" cx="179.2" cy="26.1" r="8"/>
<circle class="st5" cx="179.2" cy="71.8" r="8"/>
<circle class="st6" cx="179.2" cy="117.5" r="8"/>
<ellipse class="st7" cx="209" cy="26.1" rx="29.7" ry="0"/>
<ellipse class="st7" cx="209" cy="71.9" rx="29.7" ry="0"/>
<ellipse class="st7" cx="209" cy="117.8" rx="29.7" ry="0"/>
<g>
	<path class="st8" d="M406.2,43.3H246.7c-4.4,0-8-3.6-8-8V17c0-4.4,3.6-8,8-8h159.5c4.4,0,8,3.6,8,8v18.3
		C414.2,39.7,410.6,43.3,406.2,43.3z"/>
	<text transform="matrix(1 0 0 1 287.6745 31.6331)" class="st1 st2 st3">Transceiver</text>
</g>
<g>
	<path class="st9" d="M406.2,89H246.7c-4.4,0-8-3.6-8-8V62.7c0-4.4,3.6-8,8-8h159.5c4.4,0,8,3.6,8,8V81
		C414.2,85.4,410.6,89,406.2,89z"/>
	<text transform="matrix(1 0 0 1 297.2511 77.3437)" class="st1 st2 st3">Pedestal</text>
</g>
<g>
	<path class="st10" d="M406.2,134.7H246.7c-4.4,0-8-3.6-8-8v-18.3c0-4.4,3.6-8,8-8h159.5c4.4,0,8,3.6,8,8v18.3
		C414.2,131.1,410.6,134.7,406.2,134.7z"/>
	<text transform="matrix(1 0 0 1 284.0593 123.0551)" class="st1 st2 st3">Health Relay</text>
</g>
</svg>
